<svg xmlns="http://www.w3.org/2000/svg" width="514" height="519" viewBox="0 0 514 519" version="1.1">
	<path d="M 193.500 1.069 C 191.850 1.544, 187.350 2.832, 183.500 3.931 C 179.650 5.030, 172.827 7.249, 168.339 8.863 C 159.734 11.956, 124.092 29.374, 119.113 32.920 C 117.506 34.064, 115.904 35, 115.553 35 C 114.806 35, 114.201 35.469, 107.266 41.421 C 104.387 43.891, 101.089 46.417, 99.937 47.034 C 97.336 48.426, 95.465 49.939, 86.998 57.500 C 78.420 65.160, 61.888 82.457, 57.303 88.571 C 40.931 110.396, 35 119.131, 35 121.419 C 35 122.289, 34.550 123, 34 123 C 33.450 123, 33 123.476, 33 124.058 C 33 124.639, 29.400 132.461, 25 141.439 C 20.600 150.417, 17 158.273, 17 158.895 C 17 159.518, 16.576 160.809, 16.059 161.764 C 15.541 162.719, 14.378 166.200, 13.476 169.500 C 12.573 172.800, 11.478 176.190, 11.044 177.033 C 10.610 177.876, 9.916 180.126, 9.502 182.033 C 9.087 183.940, 8.423 185.725, 8.025 186 C 7.016 186.698, 3.158 208.920, 1.341 224.500 C -0.228 237.950, 0.129 275.734, 1.940 288 C 4.214 303.395, 7.333 318.186, 9.537 324.021 C 10.892 327.608, 12 331.519, 12 332.712 C 12 333.906, 12.411 335.136, 12.913 335.446 C 13.415 335.757, 14.130 337.808, 14.501 340.005 C 14.872 342.202, 15.586 344, 16.088 344 C 16.590 344, 17 344.899, 17 345.999 C 17 347.746, 22.408 359.801, 25.076 364 C 25.600 364.825, 26.511 366.721, 27.100 368.214 C 27.689 369.707, 29.707 373.929, 31.585 377.596 C 33.463 381.264, 35.007 384.992, 35.016 385.882 C 35.025 386.772, 36.262 388.943, 37.766 390.707 C 39.270 392.471, 41.532 395.621, 42.794 397.707 C 44.055 399.793, 46.417 403.023, 48.044 404.886 C 49.670 406.748, 51.001 408.548, 51.001 408.886 C 51.002 409.223, 52.181 410.850, 53.621 412.500 C 55.062 414.150, 58.595 418.425, 61.473 422 C 67.789 429.846, 94.050 455.345, 99.145 458.579 C 101.151 459.852, 105.215 462.868, 108.179 465.281 C 111.142 467.695, 114.901 470.528, 116.533 471.577 C 118.165 472.626, 119.950 473.829, 120.500 474.250 C 122.016 475.410, 157.558 493, 158.387 493 C 159.025 493, 164.684 495.350, 170.500 498.031 C 172.833 499.106, 185.706 502.760, 191.500 503.992 C 193.700 504.459, 197.300 505.303, 199.500 505.866 C 201.700 506.429, 209.575 507.888, 217 509.108 C 228.539 511.004, 233.768 511.293, 253 511.102 C 266.739 510.965, 279.199 510.303, 285 509.402 C 290.225 508.590, 297.348 507.489, 300.829 506.956 C 304.310 506.422, 307.993 505.539, 309.013 504.993 C 310.034 504.447, 311.850 504, 313.050 504 C 315.261 504, 324.055 501.433, 327.236 499.859 C 328.191 499.387, 329.885 499, 331 499 C 332.115 499, 333.809 498.566, 334.764 498.035 C 336.541 497.047, 342.765 494.386, 349 491.947 C 350.925 491.194, 354.975 489.209, 358 487.536 C 361.025 485.863, 366.650 482.977, 370.500 481.123 C 384.285 474.483, 387.476 472.716, 392.145 469.133 C 394.750 467.135, 401.070 462.279, 406.191 458.343 C 415.512 451.177, 437.689 429.307, 446.051 419.034 C 448.498 416.028, 451.287 412.680, 452.250 411.595 C 453.212 410.511, 454 409.290, 454 408.883 C 454 408.476, 454.656 407.487, 455.458 406.685 C 458.202 403.940, 469.904 386.879, 470.544 384.688 C 470.895 383.485, 474.967 374.759, 479.592 365.297 C 484.216 355.836, 488 347.425, 488 346.606 C 488 345.788, 488.399 344.871, 488.887 344.570 C 489.374 344.269, 490.090 342.330, 490.476 340.261 C 490.863 338.192, 491.514 336.050, 491.924 335.500 C 492.334 334.950, 493.483 331.350, 494.477 327.500 C 495.471 323.650, 496.717 319.656, 497.245 318.624 C 498.485 316.202, 501.659 297.821, 503.482 282.500 C 505.107 268.850, 505.386 241.047, 504.037 227.103 C 502.797 214.282, 498.301 189.400, 496.159 183.500 C 495.560 181.850, 493.905 176.675, 492.482 172 C 489.242 161.360, 489.921 162.989, 479.569 141 C 468.952 118.447, 465.928 112.442, 463.719 109.530 C 463.289 108.963, 459.914 104.629, 456.219 99.898 C 452.524 95.168, 448.606 89.993, 447.514 88.398 C 444.292 83.697, 414.979 54.231, 409 49.683 C 405.975 47.382, 400.600 43.138, 397.055 40.250 C 393.511 37.362, 390.023 35, 389.305 35 C 388.587 35, 388 34.580, 388 34.067 C 388 33.554, 386.988 32.819, 385.750 32.433 C 384.512 32.046, 383.275 31.441, 383 31.088 C 382.725 30.734, 380.475 29.585, 378 28.535 C 375.525 27.484, 372.825 26.096, 372 25.449 C 371.175 24.803, 368.363 23.476, 365.750 22.501 C 363.137 21.526, 361 20.405, 361 20.009 C 361 19.095, 345.105 11.728, 338.500 9.580 C 335.750 8.686, 332.600 7.539, 331.500 7.031 C 329.720 6.210, 321.011 3.638, 311 0.978 C 306.588 -0.195, 197.593 -0.110, 193.500 1.069 M 232.877 2.010 C 228.684 2.411, 223.059 3.254, 220.377 3.884 C 217.695 4.513, 212.800 5.207, 209.500 5.426 C 199.214 6.109, 173.787 13.949, 157.814 21.361 C 154.687 22.813, 151.805 24, 151.411 24 C 149.131 24, 127.719 35.842, 126 38.053 C 125.725 38.407, 122.350 40.664, 118.500 43.067 C 114.650 45.471, 110.905 48.015, 110.179 48.719 C 109.452 49.424, 108.552 50.001, 108.179 50.001 C 107.805 50.002, 106.150 51.165, 104.500 52.586 C 102.850 54.007, 99.965 56.369, 98.089 57.835 C 87.521 66.090, 72.849 80.409, 67.178 88 C 65.740 89.925, 62.472 93.975, 59.917 97 C 57.361 100.025, 54.305 104.300, 53.125 106.500 C 50.697 111.026, 48.742 114.263, 47.990 115 C 47.710 115.275, 46.595 117.188, 45.513 119.250 C 44.431 121.313, 43.198 123, 42.773 123 C 42.348 123, 42 123.481, 42 124.070 C 42 124.658, 40.749 127.021, 39.219 129.320 C 37.690 131.619, 35.788 134.850, 34.992 136.500 C 34.196 138.150, 32.523 141.179, 31.273 143.230 C 30.023 145.282, 29 147.650, 29 148.494 C 29 149.337, 28.572 150.809, 28.048 151.764 C 26.359 154.847, 24.214 160.328, 21.696 168 C 16.277 184.508, 13.212 194.575, 13.172 196 C 13.149 196.825, 12.400 201.100, 11.509 205.500 C 7.062 227.451, 5.901 256.718, 8.534 280.500 C 10.146 295.055, 13.632 314.858, 15.001 317.236 C 15.550 318.191, 16 319.473, 16 320.085 C 16 320.697, 16.618 322.616, 17.374 324.349 C 18.130 326.082, 19.563 330.425, 20.559 334 C 22.852 342.226, 31.415 362.790, 35.552 370 C 37.287 373.025, 39.560 377.075, 40.604 378.999 C 41.647 380.924, 42.771 382.724, 43.103 382.999 C 43.434 383.275, 46.232 387.775, 49.321 393 C 57.027 406.035, 65.283 416.274, 80 431.050 C 94.603 445.712, 109.104 458, 111.803 458 C 112.254 458, 113.509 458.787, 114.591 459.750 C 121.867 466.218, 148.890 482, 152.690 482 C 153.410 482, 154 482.357, 154 482.793 C 154 483.229, 156.588 484.436, 159.750 485.476 C 162.912 486.515, 165.950 487.667, 166.500 488.035 C 167.050 488.403, 169.975 489.507, 173 490.488 C 176.025 491.470, 179.400 492.614, 180.500 493.031 C 190.054 496.650, 196.828 498.440, 207 500.034 C 210.025 500.508, 216.550 501.587, 221.500 502.431 C 235.184 504.764, 270.281 504.565, 285.625 502.067 C 292.156 501.004, 298.850 499.929, 300.500 499.679 C 307.184 498.664, 315.560 496.770, 316.500 496.060 C 317.664 495.181, 327.388 492, 328.911 492 C 329.480 492, 332.320 490.927, 335.223 489.616 C 338.125 488.304, 342.075 486.665, 344 485.973 C 345.925 485.281, 349.300 483.895, 351.500 482.893 C 353.700 481.891, 357.075 480.364, 359 479.499 C 365.253 476.692, 368.262 474.878, 384.500 464.131 C 393.300 458.307, 403.299 451.170, 406.720 448.271 C 410.141 445.372, 413.108 443, 413.314 443 C 413.521 443, 418.880 437.713, 425.224 431.250 C 438.941 417.278, 448.648 405.468, 453.527 396.815 C 455.486 393.342, 458.919 387.575, 461.156 384 C 468.606 372.093, 474.819 360.565, 477.055 354.500 C 478.271 351.200, 479.597 348.050, 480.001 347.500 C 480.405 346.950, 481.502 344.025, 482.439 341 C 483.376 337.975, 484.568 334.600, 485.087 333.500 C 487.611 328.153, 492.654 308.693, 493.509 301 C 493.784 298.525, 494.443 294.925, 494.974 293 C 498.016 281.973, 498.861 244.190, 496.494 225 C 494.519 208.983, 491.457 191.825, 489.671 186.764 C 488.844 184.419, 486.496 177.325, 484.454 171 C 482.412 164.675, 480.409 159.050, 480.003 158.500 C 479.597 157.950, 478.517 155.207, 477.603 152.404 C 476.689 149.602, 475.148 145.777, 474.179 143.904 C 471.981 139.662, 457.879 115.859, 456.758 114.500 C 456.304 113.950, 454.471 111.025, 452.684 108 C 440.931 88.102, 412.355 59.604, 389.500 44.986 C 385.650 42.524, 382.350 40.170, 382.167 39.755 C 381.983 39.340, 381.422 39, 380.919 39 C 380.416 39, 377.848 37.451, 375.212 35.557 C 364.650 27.969, 339.941 17.119, 319.500 11.094 C 316.200 10.122, 312.825 9.053, 312 8.719 C 308.312 7.227, 298.771 5.349, 293.867 5.150 C 290.915 5.030, 287.150 4.508, 285.500 3.991 C 277.438 1.464, 249.542 0.414, 232.877 2.010 M 247.485 13.250 C 247.236 13.938, 247.199 15.850, 247.402 17.500 C 247.606 19.150, 247.823 26.688, 247.886 34.250 L 248 48 251 48 C 253.953 48, 254 47.918, 253.996 42.750 C 253.994 39.862, 253.699 31.762, 253.342 24.750 C 252.700 12.175, 252.659 12, 250.314 12 C 249.007 12, 247.734 12.563, 247.485 13.250 M 274.942 12.677 C 271.876 13.179, 267 20.138, 267 24.012 C 267 25.793, 268.034 27.399, 270.250 29.059 C 274.214 32.029, 277.843 33.998, 279.364 34.005 C 279.989 34.008, 281.795 35.046, 283.378 36.313 C 286.919 39.146, 286.387 41.898, 281.917 43.877 C 279.151 45.101, 278.408 45.041, 275.155 43.334 C 272.274 41.822, 271.434 40.737, 271.187 38.208 C 270.912 35.397, 270.510 35, 267.937 35 C 265.371 35, 265 35.362, 265 37.865 C 265 40.626, 267.809 45.235, 270.977 47.672 C 273.369 49.512, 280.725 50.246, 284.452 49.016 C 288.879 47.555, 291 44.144, 291 38.487 C 291 32.827, 288.153 29.779, 281.239 28.039 C 275.542 26.604, 274 25.441, 274 22.578 C 274 17.493, 280.081 16.354, 284.364 20.636 C 285.814 22.086, 287 23.918, 287 24.706 C 287 25.608, 287.804 26.021, 289.171 25.820 C 292.855 25.277, 292.661 20.668, 288.782 16.589 C 285.422 13.056, 280.730 11.730, 274.942 12.677 M 218.764 14.569 C 218.452 14.882, 216.014 15.451, 213.348 15.835 L 208.500 16.532 208.628 23.016 C 208.858 34.733, 210.857 50.793, 212.187 51.615 C 214.499 53.044, 216 49.605, 216 42.878 L 216 36 222.379 36 C 228.417 36, 228.813 36.147, 229.803 38.750 C 230.378 40.263, 231.128 43.188, 231.470 45.250 C 232.099 49.048, 232.753 49.441, 236.686 48.386 C 238.736 47.837, 238.787 47.603, 237.512 44.650 C 236.763 42.918, 235.609 39.362, 234.946 36.750 C 234.283 34.138, 233.293 32, 232.748 32 C 232.202 32, 232.335 31.301, 233.044 30.447 C 234.667 28.491, 234.719 21.213, 233.131 18.246 C 232.470 17.011, 231.045 16, 229.965 16 C 228.884 16, 228 15.550, 228 15 C 228 13.958, 219.760 13.573, 218.764 14.569 M 305.667 18.667 C 305.300 19.033, 305 20.348, 305 21.589 C 305 23.316, 305.879 24.126, 308.750 25.043 C 310.813 25.702, 312.817 26.527, 313.205 26.876 C 313.888 27.490, 310.133 43.472, 308.828 45.508 C 308.472 46.062, 307.861 48.222, 307.470 50.309 C 306.894 53.380, 307.115 54.373, 308.629 55.520 C 309.658 56.299, 310.728 56.951, 311.006 56.968 C 311.997 57.030, 313.854 51.374, 315.592 43 C 316.563 38.325, 317.939 33.082, 318.650 31.349 C 320.022 28.008, 320.356 27.980, 328.612 30.513 C 330.097 30.969, 330.921 30.649, 331.386 29.436 C 332.326 26.988, 329.539 24.324, 325.185 23.507 C 323.158 23.127, 318.180 21.732, 314.122 20.408 C 305.625 17.634, 306.515 17.818, 305.667 18.667 M 219.500 20.491 C 218.950 20.675, 217.304 21.088, 215.843 21.408 C 213.992 21.815, 213.291 22.524, 213.532 23.746 C 214.998 31.150, 214.551 30.692, 219.981 30.367 C 228.278 29.871, 230.791 27.215, 227.965 21.934 C 227.010 20.150, 222.717 19.418, 219.500 20.491 M 187.942 21.652 C 186.404 22.067, 182.563 28.804, 179.531 36.404 C 178.675 38.550, 177.697 40.030, 177.359 39.692 C 177.020 39.354, 175.970 36.697, 175.026 33.788 C 173.613 29.439, 172.860 28.446, 170.782 28.196 C 167.606 27.814, 166.779 29.777, 168.510 33.588 C 169.963 36.784, 173.248 47.666, 175.126 55.500 C 176.369 60.685, 177.354 61.959, 180.143 61.985 C 182.613 62.008, 183.158 59.314, 181.490 55.322 C 179.651 50.919, 179.642 48.057, 181.460 45.657 C 182.777 43.919, 183.290 44.136, 190.530 49.490 C 196.619 53.993, 198.714 55.037, 200.673 54.546 C 202.031 54.205, 202.998 53.540, 202.821 53.067 C 202.589 52.446, 188.328 40.616, 185.219 38.465 C 185.064 38.358, 185.613 36.972, 186.438 35.385 C 188.732 30.972, 193 21.888, 193 21.418 C 193 20.924, 190.151 21.056, 187.942 21.652 M 343.555 34.914 C 342.150 37.139, 341 39.265, 341 39.636 C 341 40.008, 338.708 44.983, 335.906 50.691 C 330.800 61.096, 330.428 63.482, 333.727 64.700 C 334.702 65.059, 337.179 66.399, 339.230 67.677 C 341.282 68.955, 343.644 70, 344.480 70 C 345.316 70, 346 70.406, 346 70.902 C 346 71.398, 347.439 72.306, 349.197 72.919 C 351.824 73.835, 352.672 73.751, 353.947 72.449 C 355.354 71.012, 355.227 70.643, 352.584 68.512 C 350.981 67.219, 347.948 65.337, 345.846 64.330 C 343.743 63.324, 342.018 62.163, 342.011 61.750 C 342.005 61.337, 341.100 61, 340 61 C 337.476 61, 337.473 59.377, 339.989 55.250 C 342.017 51.924, 343.406 51.230, 344.499 52.998 C 345.193 54.121, 355.131 59, 356.724 59 C 357.291 59, 358.259 58.393, 358.874 57.652 C 360.346 55.879, 358.389 54.237, 350.263 50.425 C 346.833 48.816, 344.020 47.161, 344.013 46.746 C 344.006 46.332, 344.835 44.435, 345.856 42.531 L 347.711 39.068 351.106 40.856 C 352.973 41.838, 356.648 43.868, 359.273 45.366 C 364.344 48.260, 365.450 48.211, 366.276 45.053 C 366.782 43.118, 364.839 41.568, 355 36.055 C 353.625 35.284, 351.062 33.802, 349.305 32.760 L 346.109 30.867 343.555 34.914 M 377.621 51.866 C 376.730 52.851, 376 53.959, 376 54.326 C 376 54.694, 374.494 57.134, 372.652 59.748 C 370.811 62.361, 369.014 65.175, 368.659 66 C 367.739 68.135, 365.789 71.063, 363.711 73.426 C 360.333 77.269, 360.539 81.893, 364.093 81.985 C 364.420 81.993, 367.255 77.986, 370.394 73.080 C 373.533 68.175, 376.794 63.586, 377.642 62.883 C 379.001 61.755, 379.117 62.128, 378.627 66.052 C 378.322 68.498, 377.798 75.064, 377.464 80.642 C 376.877 90.420, 376.937 90.843, 379.150 92.392 C 382.251 94.564, 382.411 94.508, 384.570 90.500 C 385.607 88.575, 386.802 87, 387.227 87 C 387.652 87, 388 86.563, 388 86.029 C 388 85.188, 393.588 76.395, 395.009 75 C 395.290 74.725, 396.809 72.511, 398.386 70.079 C 401.113 65.876, 401.165 65.594, 399.436 64.329 C 398.436 63.598, 397.141 63.022, 396.559 63.049 C 395.976 63.077, 393.250 66.668, 390.500 71.031 C 387.750 75.394, 384.955 79.759, 384.289 80.732 C 383.324 82.142, 383.180 79.865, 383.580 69.500 C 383.856 62.350, 384.311 55.736, 384.592 54.802 C 384.939 53.647, 384.164 52.619, 382.172 51.589 C 379.490 50.202, 379.106 50.225, 377.621 51.866 M 121.480 54.022 C 120.101 55.546, 119.971 56.479, 120.805 58.869 C 121.372 60.498, 121.603 62.063, 121.318 62.348 C 121.033 62.634, 121.161 63.451, 121.603 64.166 C 122.044 64.880, 122.512 66.148, 122.643 66.982 C 122.774 67.817, 123.616 71.425, 124.513 75 C 125.411 78.575, 126.638 83.862, 127.240 86.750 C 128.431 92.463, 128.601 92.617, 131.376 90.516 C 132.766 89.463, 133.087 88.372, 132.618 86.298 C 130.951 78.936, 131.026 78.627, 135.272 75.349 L 139.354 72.198 143.990 74.787 C 148.180 77.126, 148.827 77.235, 150.714 75.913 C 152.374 74.750, 152.566 74.140, 151.651 72.937 C 150.206 71.038, 127.026 53.608, 124.819 52.761 C 123.851 52.389, 122.494 52.902, 121.480 54.022 M 231 57.443 C 226.875 58.164, 219.940 59.264, 215.588 59.889 C 211.237 60.513, 207.187 61.420, 206.588 61.904 C 205.990 62.388, 201.914 63.784, 197.531 65.006 C 193.148 66.228, 187.298 68.248, 184.531 69.496 C 181.764 70.744, 178.446 72.087, 177.158 72.479 C 175.870 72.872, 172.182 74.500, 168.964 76.097 C 165.745 77.693, 162.856 79, 162.543 79 C 161.579 79, 142.948 91.836, 134.500 98.321 C 127.737 103.512, 112.814 117.793, 108.695 123.016 C 93.998 141.650, 87.420 151.374, 82.997 161 C 81.860 163.475, 80.490 166.291, 79.951 167.258 C 79.413 168.225, 77.615 172.500, 75.956 176.758 C 74.297 181.016, 72.548 185.400, 72.070 186.500 C 71.591 187.600, 70.431 191.200, 69.491 194.500 C 68.551 197.800, 67.123 202.525, 66.318 205 C 65.513 207.475, 64.431 213.325, 63.914 218 C 63.397 222.675, 62.418 227.850, 61.737 229.500 C 60.044 233.606, 60.027 271.140, 61.717 276 C 62.386 277.925, 63.374 282.875, 63.913 287 C 65.117 296.228, 65.790 299.772, 66.952 303 C 67.446 304.375, 68.850 308.875, 70.071 313 C 71.291 317.125, 73.350 322.834, 74.645 325.686 C 75.940 328.538, 77 331.112, 77 331.406 C 77 331.700, 78.125 334.400, 79.500 337.406 C 80.875 340.412, 82 343.157, 82 343.506 C 82 344.631, 91.137 359.320, 95.681 365.500 C 113.728 390.044, 120.355 397.088, 136.937 409.357 C 142.197 413.249, 146.950 416.803, 147.500 417.255 C 153.509 422.196, 179.244 435.183, 188.500 437.945 C 190.700 438.602, 193.400 439.534, 194.500 440.016 C 198.365 441.709, 211.564 445.221, 217.500 446.135 C 220.800 446.643, 225.531 447.510, 228.014 448.061 C 234.139 449.422, 271.489 449.541, 276.500 448.217 C 278.700 447.635, 282.975 446.863, 286 446.500 C 289.025 446.137, 292.850 445.425, 294.500 444.916 C 309.836 440.190, 323.029 435.663, 327.319 433.653 C 330.169 432.318, 335.614 429.780, 339.421 428.013 C 343.227 426.247, 346.987 424.156, 347.775 423.368 C 348.564 422.579, 351.025 421.008, 353.245 419.875 C 355.465 418.742, 357.781 417.389, 358.391 416.868 C 359.001 416.347, 363.084 413.207, 367.464 409.889 C 383.115 398.036, 388.733 392.727, 396.974 382 C 398.030 380.625, 401.649 375.985, 405.017 371.688 C 411.447 363.483, 424 343.509, 424 341.483 C 424 340.831, 425.036 338.318, 426.302 335.899 C 427.568 333.480, 429.403 329.250, 430.379 326.500 C 431.356 323.750, 432.538 320.600, 433.006 319.500 C 433.836 317.551, 434.634 314.932, 438.798 300.500 C 439.909 296.650, 441.091 290.195, 441.425 286.155 C 441.758 282.115, 442.587 277.840, 443.266 276.655 C 445.308 273.090, 444.875 234.086, 442.710 226.540 C 441.770 223.262, 441 218.441, 441 215.827 C 441 213.214, 440.138 208.696, 439.084 205.788 C 438.030 202.879, 436.438 197.800, 435.546 194.500 C 434.653 191.200, 433.504 187.600, 432.992 186.500 C 432.479 185.400, 430.675 180.900, 428.981 176.500 C 421.556 157.210, 413.871 144.620, 396.225 122.834 C 390.517 115.788, 382.245 107.747, 373.500 100.743 C 363.654 92.859, 345.891 80.582, 341 78.282 C 332.480 74.274, 324.973 70.999, 324.292 70.991 C 323.856 70.986, 321.250 69.875, 318.500 68.522 C 315.750 67.169, 312.809 66.048, 311.965 66.031 C 311.121 66.014, 307.071 64.869, 302.965 63.486 C 285.453 57.588, 248.117 54.454, 231 57.443 M 251 68 C 251 74.800, 251.071 75, 253.500 75 C 255.929 75, 256 74.800, 256 68 C 256 61.200, 255.929 61, 253.500 61 C 251.071 61, 251 61.200, 251 68 M 128.020 65.750 C 128.464 67.813, 128.978 70.291, 129.163 71.257 C 129.463 72.819, 129.818 72.740, 132.357 70.549 L 135.214 68.083 131.884 65.042 C 130.053 63.369, 128.252 62, 127.883 62 C 127.514 62, 127.576 63.688, 128.020 65.750 M 224.597 63.843 C 224.310 64.307, 227.609 67.893, 231.927 71.811 C 239.337 78.535, 239.805 78.799, 240.241 76.517 C 240.610 74.592, 239.535 72.969, 234.966 68.550 C 229.684 63.439, 225.906 61.725, 224.597 63.843 M 269 68.973 L 262.500 74.913 265.810 74.956 C 268.451 74.991, 270.214 73.965, 274.541 69.873 C 277.522 67.054, 279.718 64.354, 279.422 63.873 C 278.186 61.874, 275.134 63.368, 269 68.973 M 195.250 70.031 C 194.012 70.529, 193 71.099, 193 71.299 C 193 71.499, 195.363 73.186, 198.250 75.047 C 201.137 76.908, 204.620 79.459, 205.990 80.715 C 207.359 81.972, 208.934 83.012, 209.490 83.027 C 210.313 83.048, 219.422 89.387, 223.500 92.776 C 225.374 94.334, 238.891 103, 239.447 103 C 239.751 103, 240 102.138, 240 101.085 C 240 99.947, 238.074 97.785, 235.250 95.754 C 232.637 93.875, 223.223 87.087, 214.330 80.669 C 205.436 74.251, 198.011 69.029, 197.830 69.063 C 197.648 69.098, 196.488 69.534, 195.250 70.031 M 305.384 70.288 C 304.770 70.955, 303.241 72.175, 301.986 73 C 300.731 73.825, 294.483 78.344, 288.102 83.043 C 281.721 87.742, 274.597 92.917, 272.271 94.543 C 269.060 96.789, 268.038 98.162, 268.021 100.250 C 268.010 101.763, 268.450 103, 269 103 C 269.550 103, 270.003 102.662, 270.007 102.250 C 270.011 101.838, 271.684 100.375, 273.724 99 C 277.885 96.197, 292.716 85.233, 297.857 81.160 C 299.703 79.697, 303.680 76.816, 306.695 74.759 L 312.176 71.017 309.523 70.009 C 306.381 68.814, 306.765 68.788, 305.384 70.288 M 98.250 72.480 C 96.419 74.583, 96.604 75.021, 101.635 80.500 C 110.786 90.466, 115 95.746, 115 97.243 C 115 98.083, 113.843 99.528, 112.429 100.455 C 109.951 102.078, 109.777 102.051, 107.591 99.693 C 105.370 97.296, 105.276 97.283, 102.917 99.063 L 100.509 100.879 103.442 103.939 C 106.721 107.362, 109.082 107.699, 114.354 105.497 C 118.281 103.856, 121.337 99.216, 120.402 96.313 C 119.627 93.905, 117.632 89.626, 116.992 89 C 116.711 88.725, 113.147 84.675, 109.072 80 C 104.997 75.325, 101.177 71.397, 100.582 71.272 C 99.987 71.147, 98.938 71.690, 98.250 72.480 M 169.197 81.349 C 167.041 82.546, 167.932 83.119, 183.197 90.357 C 192.164 94.608, 200.175 98.508, 201 99.023 C 206.209 102.277, 214.212 105.341, 218.500 105.722 L 223.500 106.167 220.226 104.083 C 218.425 102.937, 216.400 101.967, 215.726 101.927 C 215.052 101.887, 213.150 100.992, 211.500 99.938 C 209.850 98.884, 207.825 97.744, 207 97.404 C 203.577 95.993, 198.807 93.602, 186.218 86.983 C 178.914 83.142, 172.614 80.016, 172.218 80.035 C 171.823 80.055, 170.464 80.646, 169.197 81.349 M 244 94.975 L 244 109.949 228.250 110.225 L 212.500 110.500 212.208 118.250 L 211.916 126 226.376 126 C 234.329 126, 241.548 126.273, 242.418 126.607 C 243.840 127.152, 244 134.296, 244 197.107 L 244 267 253.500 267 L 263 267 263.015 198.750 C 263.024 161.212, 263.380 129.950, 263.808 129.277 C 264.352 128.420, 269.212 127.971, 280.042 127.777 L 295.500 127.500 295.789 118.750 L 296.078 110 280.739 110 C 270.142 110, 265.029 109.629, 264.200 108.800 C 263.383 107.983, 263 103.200, 263 93.800 L 263 80 253.500 80 L 244 80 244 94.975 M 326 83.097 C 310.478 90.428, 300.448 95.548, 299.765 96.488 C 299.361 97.045, 299.024 97.176, 299.015 96.781 C 299.007 96.386, 295.962 97.621, 292.250 99.526 C 288.538 101.431, 284.938 102.992, 284.250 102.995 C 283.563 102.998, 283 103.506, 283 104.124 C 283 106.723, 293.536 104.405, 303.177 99.684 C 308.438 97.108, 313.250 95, 313.871 95 C 314.492 95, 315 94.550, 315 94 C 315 93.450, 315.489 93, 316.088 93 C 316.686 93, 321.862 90.688, 327.590 87.862 C 336.881 83.279, 337.816 82.581, 336.253 81.394 C 333.822 79.549, 333.342 79.629, 326 83.097 M 77.494 93.765 C 76.941 94.169, 74.513 97.200, 72.099 100.500 C 69.685 103.800, 66.540 107.765, 65.110 109.311 L 62.509 112.122 67.630 116.811 C 70.446 119.390, 75.567 123.975, 79.009 127 C 82.452 130.025, 85.941 133.153, 86.763 133.950 C 88.362 135.502, 87.882 135.891, 94.095 128 C 103.657 115.853, 104.610 113.832, 101.357 112.583 C 100.453 112.237, 99.630 112.076, 99.529 112.226 C 98.729 113.407, 93.249 120.770, 92.269 121.980 C 91.592 122.816, 90.433 124.343, 89.693 125.372 C 88.409 127.160, 88.183 127.099, 84.695 124.037 L 81.042 120.830 84.271 116.698 C 86.047 114.426, 88.513 111.431, 89.750 110.044 C 90.987 108.656, 92 107.248, 92 106.915 C 92 106.073, 88.059 102.585, 87.676 103.089 C 80.927 111.990, 77.486 115.997, 76.602 115.983 C 75.996 115.973, 74.450 114.858, 73.166 113.505 L 70.832 111.044 73.130 107.772 C 74.393 105.972, 75.936 104.050, 76.558 103.500 C 77.181 102.950, 78.702 101.022, 79.938 99.215 C 81.746 96.572, 81.948 95.643, 80.971 94.465 C 79.611 92.826, 78.959 92.695, 77.494 93.765 M 422.420 99.358 C 413.159 107.740, 404 116.597, 404 117.171 C 404 117.459, 404.816 118.635, 405.813 119.784 C 407.621 121.870, 407.650 121.852, 417.029 112.866 C 422.201 107.911, 426.897 103.552, 427.466 103.179 C 428.035 102.805, 429.318 101.531, 430.318 100.346 C 431.873 98.504, 431.947 97.887, 430.828 96.096 C 430.108 94.943, 429.254 94, 428.930 94 C 428.606 94, 425.677 96.411, 422.420 99.358 M 141.500 99.412 L 138.500 101.826 141 102.427 C 142.375 102.757, 148.675 103.444, 155 103.952 C 166.043 104.840, 185.730 107.493, 189.131 108.551 C 190.027 108.831, 194.363 109.270, 198.764 109.527 C 206.021 109.952, 206.814 109.817, 207.268 108.083 C 207.708 106.400, 207.031 106.090, 201.634 105.505 C 198.260 105.140, 193.925 104.443, 192 103.956 C 190.075 103.469, 184.230 102.790, 179.010 102.446 C 173.791 102.103, 169.208 101.629, 168.827 101.393 C 168.446 101.157, 163.491 100.341, 157.817 99.580 C 152.143 98.819, 146.825 97.926, 146 97.597 C 145.166 97.264, 143.169 98.069, 141.500 99.412 M 359.795 97.538 C 359.538 97.795, 354.272 98.673, 348.093 99.488 C 341.914 100.303, 336.522 101.177, 336.112 101.431 C 335.701 101.685, 330.836 102.158, 325.300 102.482 C 319.764 102.807, 313.722 103.506, 311.874 104.036 C 310.025 104.566, 307.034 105, 305.225 105 C 303.162 105, 301.713 105.584, 301.336 106.567 C 300.147 109.666, 302.447 110.272, 310.658 109.023 C 314.971 108.367, 322.775 107.243, 328 106.525 C 333.225 105.806, 338.625 104.957, 340 104.637 C 341.375 104.318, 346.700 103.818, 351.833 103.526 C 364 102.836, 366.441 102.237, 364.859 100.330 C 363.374 98.540, 360.421 96.912, 359.795 97.538 M 435.500 116.041 C 432.200 118.261, 428.817 120.622, 427.981 121.289 C 427.146 121.955, 423.884 124.192, 420.731 126.260 C 417.579 128.328, 415 130.396, 415 130.855 C 415 131.314, 415.813 132.426, 416.806 133.325 C 418.665 135.006, 419.663 134.674, 424.500 130.761 C 428.292 127.693, 437 122.212, 437 122.893 C 437 123.764, 432.554 133.916, 428.368 142.603 C 426.255 146.988, 426.079 148.079, 427.115 150.353 C 428.416 153.208, 431.057 153.791, 433.179 151.693 C 433.905 150.974, 439.587 146.873, 445.805 142.580 C 454.907 136.295, 457.050 134.360, 456.805 132.647 C 456.427 130.009, 453.759 129.384, 451.693 131.450 C 450.840 132.303, 449.730 133, 449.226 133 C 448.722 133, 447.505 133.889, 446.521 134.976 C 445.538 136.063, 444.381 136.736, 443.952 136.470 C 443.522 136.205, 443.020 136.347, 442.835 136.786 C 442.389 137.849, 435 142.337, 435 141.546 C 435 140.936, 442.823 123.878, 445.363 118.950 C 446.467 116.808, 446.444 116.048, 445.217 114.200 C 444.413 112.990, 443.248 112.001, 442.628 112.002 C 442.008 112.004, 438.800 113.821, 435.500 116.041 M 200.827 119.506 C 200.549 119.785, 191.586 120.238, 180.910 120.513 C 170.235 120.788, 158.125 121.436, 154 121.954 C 149.875 122.472, 139.750 123.178, 131.500 123.523 C 114.247 124.245, 113.387 124.408, 111.879 127.226 C 110.765 129.307, 110.807 129.313, 121.130 128.497 C 126.834 128.046, 135.100 127.592, 139.500 127.487 C 149.574 127.247, 158.932 126.724, 181 125.168 C 206.076 123.400, 207 123.249, 207 120.939 C 207 119.477, 206.303 119, 204.167 119 C 202.608 119, 201.106 119.228, 200.827 119.506 M 301 120.841 C 301 123.289, 302.721 123.671, 317.500 124.507 C 323.550 124.849, 331.200 125.557, 334.500 126.081 C 337.800 126.605, 345.675 127.195, 352 127.393 C 358.325 127.590, 370.378 128.317, 378.784 129.009 C 387.190 129.700, 394.365 129.968, 394.729 129.605 C 395.092 129.242, 394.413 127.969, 393.220 126.776 C 391.249 124.805, 389.249 124.485, 371.276 123.265 C 360.399 122.527, 347.080 121.722, 341.678 121.476 C 336.276 121.230, 331.463 120.786, 330.983 120.490 C 330.503 120.193, 326.598 120.074, 322.305 120.225 C 318.012 120.376, 311.462 120.127, 307.750 119.670 C 301.390 118.889, 301 118.956, 301 120.841 M 202 129.934 C 201.175 130.415, 196.450 131.592, 191.500 132.552 C 186.550 133.511, 182.050 134.628, 181.500 135.035 C 180.950 135.441, 178.475 136.102, 176 136.502 C 173.525 136.903, 171.070 137.487, 170.545 137.801 C 170.020 138.115, 168.220 138.510, 166.545 138.681 C 164.870 138.851, 162.600 139.416, 161.500 139.937 C 160.400 140.457, 157.475 141.334, 155 141.885 C 135.122 146.312, 131.259 147.238, 129.500 148 C 128.400 148.477, 123.450 149.774, 118.500 150.883 C 113.550 151.993, 106.800 153.615, 103.500 154.487 C 94.554 156.854, 93.615 157.094, 92.226 157.371 C 90.250 157.764, 87.781 161.747, 89.033 162.520 C 89.613 162.879, 90.630 162.734, 91.294 162.199 C 91.957 161.664, 94.525 160.899, 97 160.500 C 99.475 160.101, 101.956 159.408, 102.514 158.961 C 103.071 158.513, 105.321 157.922, 107.514 157.647 C 109.706 157.372, 114.200 156.409, 117.500 155.507 C 122.858 154.041, 129.061 152.478, 149.500 147.441 C 152.800 146.628, 157.025 145.734, 158.889 145.455 C 160.753 145.175, 162.701 144.685, 163.220 144.364 C 164.226 143.742, 172.918 141.423, 179.500 140.020 C 181.700 139.551, 186.200 138.436, 189.500 137.542 C 192.800 136.648, 198.425 135.230, 202 134.391 C 211.741 132.105, 211.748 132.101, 208.580 130.457 C 205.380 128.797, 204.124 128.697, 202 129.934 M 49.872 133.456 C 48.316 135.121, 46.496 137.837, 45.828 139.491 C 45.160 141.146, 44.354 142.725, 44.036 143 C 42.990 143.907, 41 149.062, 41.026 150.797 C 41.041 151.816, 42.749 153.273, 45.276 154.425 C 47.599 155.484, 49.725 156.609, 50 156.925 C 50.275 157.241, 52.525 158.515, 55 159.755 C 57.475 160.995, 61.792 163.313, 64.593 164.906 L 69.685 167.803 71.330 165.019 L 72.974 162.235 68.237 160.144 C 60.534 156.743, 60.661 156.956, 63.035 151.418 C 66.610 143.078, 67.204 142.758, 73.731 145.645 C 79.571 148.227, 79.492 148.245, 82.036 143.811 C 83.070 142.009, 81.758 140.414, 80.090 141.445 C 79.589 141.754, 76.861 140.843, 74.028 139.420 C 71.195 137.997, 68.253 137.073, 67.490 137.366 C 66.687 137.674, 65.845 137.088, 65.492 135.975 C 65.156 134.917, 63.711 133.131, 62.280 132.006 C 58.515 129.044, 53.440 129.637, 49.872 133.456 M 300.500 131 C 300.160 131.550, 298.446 132.039, 296.691 132.087 C 294.468 132.148, 295.776 132.733, 301 134.016 C 305.125 135.029, 313 137.037, 318.500 138.477 C 324 139.917, 332.100 141.936, 336.500 142.963 C 340.900 143.989, 347.875 145.699, 352 146.762 C 356.125 147.824, 360.804 148.763, 362.399 148.848 C 363.993 148.933, 365.854 149.464, 366.533 150.028 C 367.213 150.592, 369.958 151.657, 372.634 152.395 C 375.311 153.133, 380.200 154.499, 383.500 155.432 C 386.800 156.365, 391.293 157.357, 393.485 157.636 C 395.676 157.916, 397.926 158.488, 398.485 158.907 C 399.542 159.701, 410.462 162.561, 415.262 163.301 L 418.025 163.727 416.223 160.642 C 414.905 158.386, 413.356 157.332, 410.460 156.722 C 408.282 156.263, 402.900 154.965, 398.500 153.837 C 394.100 152.709, 386.900 150.939, 382.500 149.902 C 378.100 148.866, 372.025 147.330, 369 146.490 C 365.975 145.649, 362.150 144.720, 360.500 144.424 C 358.850 144.128, 353.675 142.814, 349 141.503 C 344.325 140.193, 339.375 138.904, 338 138.640 C 336.625 138.375, 332.800 137.468, 329.500 136.625 C 316.553 133.314, 302.782 130, 301.971 130 C 301.502 130, 300.840 130.450, 300.500 131 M 54.434 136.765 C 53.847 137.169, 52.202 139.865, 50.779 142.756 L 48.190 148.011 51.757 150.951 L 55.323 153.891 58.122 148.695 C 61.763 141.936, 61.861 138.278, 58.435 136.975 C 55.418 135.828, 55.767 135.847, 54.434 136.765 M 269 152.877 L 269 164.679 285.250 166.018 C 294.188 166.754, 303.975 167.466, 307 167.600 C 316.459 168.019, 333.957 169.855, 335.075 170.547 C 335.663 170.910, 341.174 172.252, 347.322 173.529 C 353.470 174.806, 359.738 176.324, 361.250 176.901 C 363.965 177.937, 364 177.900, 364 173.975 C 364 170.661, 364.675 169.325, 368.061 165.939 C 372.223 161.777, 375.211 161.140, 375.817 164.286 C 376.051 165.506, 375.207 166.380, 373.078 167.123 C 369.333 168.428, 369.206 169.317, 372.547 170.839 C 376.074 172.446, 378.098 172.264, 380.933 170.086 L 383.365 168.216 379.433 164.220 C 373.051 157.737, 363.360 153.392, 350 151.026 C 346.425 150.393, 341.925 149.452, 340 148.936 C 335.949 147.850, 306.140 144.182, 291.500 142.968 C 286 142.512, 278.688 141.899, 275.250 141.607 L 269 141.075 269 152.877 M 231.500 142.648 C 229.300 142.820, 223 143.442, 217.500 144.031 C 212 144.620, 204.575 145.282, 201 145.503 C 189.527 146.211, 175.816 148.072, 163.500 150.591 C 145.414 154.290, 144.495 154.619, 130.546 162.409 C 128.424 163.594, 125.087 167.086, 125.033 168.179 C 124.930 170.291, 128.555 172.080, 132.373 171.801 C 137.032 171.461, 138.034 169.173, 134.250 167.513 C 131.742 166.412, 131.226 163.234, 133.419 162.393 C 135.193 161.712, 139.699 164.590, 141.245 167.392 C 141.885 168.551, 142.654 171.525, 142.954 174 C 143.451 178.100, 143.722 178.472, 146 178.189 C 147.375 178.017, 150.300 177.216, 152.500 176.408 C 160.978 173.295, 191.253 167.807, 201.500 167.526 C 204.800 167.435, 214.588 167.280, 223.250 167.180 L 239 167 239 154.500 C 239 143.198, 238.832 142.016, 237.250 142.168 C 236.287 142.261, 233.700 142.477, 231.500 142.648 M 209.698 146.777 C 208.091 147.124, 207.964 147.947, 208.524 154.333 C 209.313 163.321, 209.567 164.103, 211.462 163.376 C 212.428 163.006, 213 161.524, 213 159.393 C 213 156.182, 213.188 156, 216.500 156 C 219.333 156, 220 155.619, 220 154 C 220 152.333, 219.333 152, 216 152 C 211.242 152, 210.553 150.053, 215.250 149.882 C 217.037 149.816, 218.838 149.816, 219.250 149.882 C 219.662 149.947, 220 149.096, 220 147.992 C 220 146.264, 219.406 146.012, 215.750 146.186 C 213.412 146.297, 210.689 146.563, 209.698 146.777 M 293.723 146.697 C 293.470 147.139, 292.946 149.250, 292.560 151.389 L 291.857 155.279 294.838 154.682 C 298.046 154.041, 299.488 155.592, 297.969 158.051 C 297.275 159.173, 296.756 159.090, 295.098 157.589 C 293.981 156.578, 292.367 156.029, 291.494 156.364 C 287.596 157.860, 294.897 163.802, 299.025 162.492 C 299.993 162.185, 301.347 160.576, 302.035 158.917 C 303.647 155.024, 301.858 151.282, 298.109 150.703 C 296.221 150.411, 296.557 150.258, 299.323 150.150 C 302.382 150.030, 303.080 149.650, 302.815 148.250 C 302.574 146.981, 301.342 146.417, 298.333 146.197 C 296.051 146.030, 293.976 146.255, 293.723 146.697 M 182.750 149.809 C 181.787 149.995, 181 150.714, 181 151.407 C 181 153.890, 183.296 164.516, 184.006 165.315 C 184.404 165.763, 187.512 165.815, 190.912 165.430 C 195.851 164.872, 197.032 164.406, 196.781 163.115 C 196.536 161.850, 195.442 161.561, 191.734 161.780 C 188.045 161.997, 187 161.724, 187 160.541 C 187 159.542, 188.378 158.803, 191.039 158.378 C 195.994 157.585, 195.733 155.456, 190.699 155.609 C 185.169 155.778, 185.087 153.259, 190.595 152.433 C 196.576 151.537, 195.762 149.504, 189.414 149.485 C 186.711 149.477, 183.713 149.623, 182.750 149.809 M 322.088 150.669 C 321.091 151.795, 320.968 152.726, 321.671 153.841 C 322.374 154.955, 322.209 156.216, 321.109 158.133 C 319.669 160.642, 319.693 161.004, 321.431 162.923 C 323.451 165.156, 326.999 165.606, 329.984 164.009 C 331.464 163.216, 331.829 161.863, 331.802 157.259 C 331.784 154.091, 331.316 150.938, 330.762 150.250 C 329.347 148.493, 323.778 148.762, 322.088 150.669 M 310.761 153.472 C 310.385 155.435, 310.664 155.886, 312.118 155.664 C 314.826 155.251, 315.441 154.236, 314.020 152.524 C 312.225 150.361, 311.304 150.629, 310.761 153.472 M 325 152.893 C 325 153.384, 325.675 154.045, 326.500 154.362 C 327.414 154.712, 328 154.363, 328 153.469 C 328 152.661, 327.325 152, 326.500 152 C 325.675 152, 325 152.402, 325 152.893 M 439.998 157.229 C 433.365 161.712, 433.877 170.643, 441.033 175.298 C 444.538 177.578, 447.562 176.824, 460.796 170.371 C 470.975 165.408, 472.026 164.648, 471.433 162.682 C 470.320 158.990, 469.304 158.629, 465.308 160.506 C 463.214 161.490, 461.275 162.573, 461 162.913 C 460.725 163.253, 457.681 164.986, 454.235 166.765 C 446.683 170.665, 442.305 170.993, 441.099 167.750 C 440.016 164.835, 440.551 163.578, 443.565 161.965 C 445.397 160.985, 445.864 160.121, 445.399 158.575 C 444.349 155.084, 443.489 154.870, 439.998 157.229 M 325 160 C 325 161.111, 325.667 162, 326.500 162 C 327.333 162, 328 161.111, 328 160 C 328 158.889, 327.333 158, 326.500 158 C 325.667 158, 325 158.889, 325 160 M 310.190 161.750 C 310.376 162.713, 311.190 163.500, 312 163.500 C 312.810 163.500, 313.624 162.713, 313.810 161.750 C 314.046 160.522, 313.506 160, 312 160 C 310.494 160, 309.954 160.522, 310.190 161.750 M 31.507 171.250 C 30.560 174.137, 28.977 179.566, 27.990 183.313 L 26.196 190.126 29.348 191.490 C 33.404 193.245, 36.133 194.229, 37.957 194.593 C 38.759 194.753, 40.334 195.356, 41.457 195.932 C 42.581 196.509, 46.498 198.091, 50.162 199.449 C 57.592 202.201, 58.248 201.959, 59.510 196 C 59.918 194.075, 60.539 192.275, 60.891 192 C 61.243 191.725, 62.340 188.394, 63.329 184.599 C 64.955 178.354, 64.978 177.550, 63.570 176.142 C 62.436 175.008, 61.715 174.885, 60.911 175.689 C 59.570 177.030, 55.010 189.813, 55.004 192.250 C 55.002 193.213, 54.548 194, 53.996 194 C 53.444 194, 51.525 193.213, 49.732 192.250 C 46.401 190.462, 46.054 188.948, 47.960 184.500 C 48.431 183.400, 49.461 180.393, 50.249 177.818 C 51.671 173.169, 51.664 173.132, 49.222 172.520 C 47.870 172.180, 46.633 172.037, 46.474 172.201 C 45.740 172.957, 42 184.622, 42 186.156 C 42 187.105, 41.602 188.128, 41.115 188.429 C 39.688 189.311, 34 186.930, 34 185.451 C 34 183.735, 36.471 174.364, 37.872 170.768 C 38.773 168.456, 38.644 167.880, 37.034 167.018 C 33.885 165.333, 33.303 165.778, 31.507 171.250 M 229.542 173.750 C 229.167 175.813, 228.211 179.446, 227.417 181.824 C 226.623 184.202, 226.243 186.584, 226.573 187.118 C 226.902 187.651, 226.735 188.630, 226.202 189.294 C 225.668 189.957, 224.694 192.750, 224.038 195.500 C 219.408 214.913, 219.583 213.984, 219.842 217.833 C 220.263 224.064, 224.304 214.867, 227.458 200.500 C 227.700 199.400, 228.133 197.600, 228.421 196.500 C 228.708 195.400, 229.417 192.475, 229.996 190 C 230.574 187.525, 231.478 184.375, 232.005 183 C 232.531 181.625, 233.142 178.925, 233.363 177 C 233.583 175.075, 234.090 172.713, 234.489 171.750 C 235.066 170.357, 234.705 170, 232.718 170 C 230.622 170, 230.114 170.600, 229.542 173.750 M 270 171.992 C 270 173.169, 270.450 174.972, 271 176 C 271.550 177.027, 272.677 181.160, 273.506 185.184 C 274.334 189.208, 275.432 193.400, 275.946 194.500 C 276.460 195.600, 277.843 200.325, 279.019 205 C 284.705 227.606, 284.539 227.217, 287.657 225.233 C 288.520 224.684, 288.457 223.483, 287.410 220.499 C 286.639 218.299, 285.800 215.150, 285.547 213.500 C 285.293 211.850, 284.364 208.025, 283.483 205 C 282.601 201.975, 280.593 194.775, 279.019 189 C 274.731 173.265, 273.687 170.563, 271.750 170.190 C 270.524 169.954, 270 170.494, 270 171.992 M 301 172.522 C 301 172.809, 307.744 186.707, 315.986 203.406 C 330.270 232.346, 331.115 233.790, 334.013 234.215 C 335.686 234.461, 336.927 234.400, 336.772 234.081 C 336.617 233.761, 329.598 219.662, 321.174 202.750 C 307.382 175.061, 305.616 172, 303.429 172 C 302.093 172, 301 172.235, 301 172.522 M 195.201 181.081 C 192.890 185.526, 191 189.763, 191 190.498 C 191 191.232, 190.469 192.010, 189.820 192.227 C 188.273 192.742, 189.535 196, 191.281 196 C 192.469 196, 197 187.374, 197 185.113 C 197 184.635, 197.675 183.685, 198.500 183 C 199.325 182.315, 200 180.965, 200 180 C 200 179.035, 200.675 177.685, 201.500 177 C 203.558 175.292, 203.387 173, 201.201 173 C 199.964 173, 198.090 175.524, 195.201 181.081 M 368.998 186.076 C 369 195.836, 369.178 196.819, 371.314 198.826 C 373.656 201.025, 379 201.842, 379 200 C 379 199.450, 379.675 199, 380.500 199 C 381.746 199, 382 197.065, 382 187.585 L 382 176.171 375.498 175.835 L 368.996 175.500 368.998 186.076 M 125.667 176.667 C 125.300 177.033, 125 181.983, 125 187.667 C 125 196.667, 125.258 198.258, 127 200 C 129.538 202.538, 131.422 202.520, 135.632 199.918 L 139 197.837 139 186.918 L 139 176 132.667 176 C 129.183 176, 126.033 176.300, 125.667 176.667 M 473.500 178.550 C 470.464 179.855, 462.536 182.911, 451.390 187.073 C 446.464 188.912, 445.373 189.711, 445.761 191.193 C 446.025 192.204, 446.614 193.261, 447.069 193.543 C 448.183 194.231, 457 191.967, 457 190.993 C 457 190.569, 458.634 189.916, 460.632 189.541 C 462.629 189.167, 467.354 187.714, 471.132 186.314 C 476.696 184.252, 477.997 183.363, 477.985 181.634 C 477.958 177.906, 476.820 177.123, 473.500 178.550 M 116.864 194.750 C 115.994 195.713, 111.957 199.076, 107.892 202.225 C 103.826 205.374, 98.900 209.424, 96.944 211.225 C 94.989 213.026, 90.939 216.396, 87.944 218.714 C 84.950 221.032, 81.295 223.957, 79.822 225.214 C 78.349 226.471, 75.445 228.850, 73.369 230.500 C 66.338 236.087, 65 237.782, 65 241.110 L 65 244.310 67.219 242.405 C 68.439 241.357, 69.948 240.050, 70.571 239.500 C 71.194 238.950, 74.104 236.475, 77.039 234 C 79.973 231.525, 83.085 228.825, 83.954 228 C 84.824 227.175, 87.551 224.925, 90.014 223 C 97.079 217.480, 98.043 216.670, 101.032 213.750 C 102.580 212.238, 104.167 211, 104.558 211 C 104.950 211, 106.242 209.988, 107.430 208.750 C 108.617 207.512, 111.931 204.519, 114.794 202.097 C 118.339 199.099, 120 196.945, 120 195.347 C 120 192.553, 119.017 192.366, 116.864 194.750 M 387.714 197.987 C 387.334 199.439, 388.276 200.852, 391.214 203.237 C 396.530 207.552, 401.469 211.710, 406.436 216.052 C 408.671 218.005, 412.524 221.155, 414.997 223.052 C 421.204 227.812, 422.887 229.168, 425.676 231.657 C 429.637 235.194, 436.139 240.443, 437.619 241.300 C 438.639 241.890, 439 241.446, 439 239.601 C 439 237.877, 437.837 236.235, 435.250 234.307 C 433.188 232.769, 431.275 231.278, 431 230.992 C 430.725 230.706, 428.025 228.456, 425 225.991 C 421.975 223.526, 418.899 220.938, 418.163 220.239 C 417.428 219.541, 415.178 217.739, 413.163 216.235 C 411.149 214.731, 409.050 213.004, 408.500 212.397 C 407.950 211.791, 404.350 208.808, 400.500 205.769 C 396.650 202.730, 392.419 199.289, 391.097 198.122 C 388.180 195.547, 388.350 195.553, 387.714 197.987 M 479.423 199.967 C 478.281 200.429, 471.981 201.576, 465.423 202.516 C 458.865 203.456, 452.893 204.715, 452.152 205.316 C 451.211 206.078, 451.016 207.478, 451.506 209.954 C 451.892 211.904, 452.737 216.647, 453.385 220.492 C 454.175 225.189, 455.044 227.569, 456.031 227.741 C 459.376 228.325, 459.788 226.767, 458.545 218.250 C 457.882 213.713, 457.601 210, 457.920 209.999 C 458.239 209.999, 461.650 209.350, 465.500 208.558 C 469.350 207.766, 475.200 206.817, 478.500 206.449 C 481.800 206.081, 484.655 205.637, 484.845 205.462 C 485.035 205.287, 484.887 203.761, 484.516 202.072 C 483.818 198.893, 482.957 198.537, 479.423 199.967 M 26.500 209.206 C 17.731 214.227, 15.330 225.800, 21.357 234 C 23.871 237.421, 25.919 238.949, 29.895 240.373 C 35.340 242.323, 43.117 242.150, 43.812 240.065 C 44.007 239.479, 44.583 239, 45.092 239 C 45.601 239, 47.337 237.824, 48.951 236.386 C 52.734 233.015, 53.981 225.283, 51.643 219.688 C 50.174 216.172, 50.193 216, 52.051 216 C 55.227 216, 54.554 212.161, 51.250 211.429 C 49.737 211.094, 47.150 210.453, 45.500 210.003 C 40.252 208.573, 36.002 208.026, 35.951 208.775 C 34.762 226.405, 34.639 225, 37.379 225 C 39.668 225, 39.880 224.645, 39.736 221.044 C 39.543 216.186, 40.278 215.350, 43.468 216.804 C 46.499 218.185, 49.508 224.684, 47.972 226.534 C 47.399 227.224, 47.058 228.233, 47.215 228.774 C 47.372 229.316, 46.180 230.993, 44.567 232.502 C 41.857 235.035, 41.172 235.203, 35.591 234.697 C 32.268 234.395, 29.379 233.636, 29.170 233.010 C 28.961 232.383, 27.803 231.495, 26.597 231.037 C 24.887 230.387, 24.348 229.279, 24.156 226.015 C 23.831 220.516, 25.805 216.264, 29.237 215.067 C 31.440 214.299, 32 213.486, 32 211.052 C 32 207.714, 30.175 207.102, 26.500 209.206 M 474 234.480 C 456.423 236.361, 455.220 236.698, 455.771 239.582 C 456.189 241.768, 456.725 241.998, 461.367 241.983 C 467.258 241.963, 484.646 240.240, 487.250 239.418 C 488.393 239.057, 489 237.848, 489 235.933 C 489 233.759, 488.547 233.032, 487.250 233.125 C 486.288 233.194, 480.325 233.803, 474 234.480 M 464.141 292 C 459.867 298.925, 459.043 299.710, 457.584 298.250 C 457.171 297.837, 455.859 297.455, 454.667 297.401 C 453.475 297.346, 450.813 296.958, 448.750 296.539 C 444.983 295.774, 443.573 297.004, 446.273 298.700 C 446.973 299.140, 449.202 301.470, 451.227 303.877 L 454.909 308.254 451.489 314.589 C 449.607 318.073, 448.447 321.158, 448.909 321.444 C 449.847 322.024, 458.837 319.235, 460.683 317.791 C 461.998 316.763, 463.777 318.280, 468.301 324.283 C 472.490 329.843, 474.348 329.299, 473.541 322.750 C 473.185 319.863, 472.666 316.304, 472.388 314.842 C 471.947 312.529, 472.278 312.098, 474.941 311.513 C 476.623 311.143, 478 310.525, 478 310.139 C 478 309.752, 479.204 309.337, 480.675 309.215 C 483.234 309.003, 487 306.479, 487 304.976 C 487 304.243, 482.554 303.226, 475.509 302.349 C 473.314 302.075, 471.332 301.665, 471.103 301.436 C 470.874 301.208, 470.571 298.204, 470.428 294.760 C 470.285 291.317, 470.130 287.712, 470.084 286.750 C 469.934 283.636, 468.544 284.864, 464.141 292 M 37.576 306.825 L 36.893 314.649 32.197 315.753 C 29.613 316.360, 26.262 317.123, 24.750 317.448 C 20.372 318.388, 21.580 320.260, 28.791 323.711 L 35.500 326.923 35.168 333.961 C 34.911 339.409, 35.145 341, 36.203 341 C 37.330 341, 42.719 335.415, 45.107 331.771 C 45.756 330.780, 54.127 332.639, 55 333.969 C 55.817 335.213, 59.789 336.151, 60.356 335.233 C 60.645 334.766, 59.108 331.579, 56.940 328.152 C 54.773 324.724, 53 321.794, 53 321.641 C 53 321.488, 54.600 319.594, 56.556 317.432 C 63.627 309.615, 62.936 308.084, 53.455 310.554 C 50.365 311.359, 47.517 311.820, 47.127 311.578 C 46.736 311.337, 45.085 308.409, 43.458 305.072 C 41.831 301.735, 39.996 299.004, 39.379 299.002 C 38.705 299.001, 37.986 302.116, 37.576 306.825 M 79.920 370.596 C 79.192 371.474, 75.424 374.611, 71.548 377.568 C 67.672 380.525, 62.823 384.430, 60.773 386.246 L 57.046 389.547 59.153 393.023 C 61.384 396.704, 64.911 401.348, 67.680 404.250 C 68.972 405.604, 71 406, 76.642 406 C 83.569 406, 84.097 405.835, 87.217 402.687 C 91.245 398.623, 95 391.677, 95 388.291 C 95 385.665, 90.235 376, 88.940 376 C 88.532 376, 87.268 374.425, 86.133 372.500 C 83.886 368.693, 81.984 368.110, 79.920 370.596 M 75.993 382.599 C 65.065 392.024, 65.448 391.517, 67.238 394.185 C 70.961 399.735, 73.143 401.238, 76.649 400.669 C 81.002 399.963, 85.614 396.648, 87.608 392.790 C 88.943 390.210, 88.998 389.063, 87.965 385.374 C 86.912 381.614, 84.108 377, 82.875 377 C 82.661 377, 79.564 379.520, 75.993 382.599 M 412.480 384.254 C 411.967 386.990, 412.406 388.560, 414.670 392.088 C 421.140 402.169, 431.516 416, 432.609 416 C 433.255 416, 434.080 414.819, 434.442 413.376 C 434.930 411.431, 434.405 409.748, 432.410 406.870 L 429.720 402.988 432.684 398.244 C 435.768 393.308, 435.762 393.311, 443.106 394.584 C 446.246 395.129, 446.786 394.925, 447.288 393.008 C 447.604 391.798, 447.648 390.247, 447.386 389.562 C 446.943 388.408, 440.319 386.642, 432 385.459 C 430.075 385.186, 427.375 384.554, 426 384.056 C 424.625 383.559, 421.781 382.866, 419.679 382.517 C 417.577 382.168, 415.242 381.647, 414.490 381.358 C 413.558 381, 412.918 381.923, 412.480 384.254 M 420.128 390.737 C 420.882 391.692, 421.950 393.058, 422.500 393.772 C 425.960 398.262, 426.244 398.325, 427.670 394.932 C 428.419 393.153, 428.911 391.607, 428.765 391.497 C 427.970 390.897, 421.485 389, 420.228 389 C 418.969 389, 418.955 389.253, 420.128 390.737 M 93.946 407.550 C 87.651 413.903, 82.642 419.641, 82.816 420.300 C 82.990 420.960, 83.731 422.112, 84.462 422.859 C 85.967 424.400, 86.660 423.810, 100.931 408.835 C 107.541 401.899, 109.057 399.754, 108.527 398.085 C 108.163 396.938, 107.309 396, 106.629 396 C 105.949 396, 100.242 401.198, 93.946 407.550 M 398.200 398.200 C 396.142 400.258, 396.802 401.447, 403.750 408.195 C 412.459 416.653, 413.594 418.093, 414.249 421.520 C 414.672 423.734, 414.168 424.985, 411.973 427.181 C 407.098 432.056, 404.804 431.207, 394.932 420.873 L 386.212 411.746 384.408 414.500 L 382.604 417.253 392.167 426.556 C 403.330 437.415, 406.488 438.716, 412.566 434.959 C 417.556 431.875, 419.992 427.539, 419.996 421.730 C 420 416.484, 416.982 410.579, 412.852 407.756 C 411.559 406.871, 408.269 404.089, 405.542 401.573 C 400.089 396.544, 399.930 396.470, 398.200 398.200 M 130.987 420.524 C 129.624 423.071, 129.783 423.292, 136.763 428.540 C 137.886 429.384, 137.255 430.798, 133.416 436.040 C 130.814 439.593, 128.306 442.650, 127.842 442.833 C 127.379 443.017, 127 443.609, 127 444.150 C 127 444.691, 125.875 446.608, 124.500 448.411 C 123.125 450.214, 122 452.326, 122 453.104 C 122 454.925, 126.052 457.519, 126.884 456.231 C 130 451.410, 132.630 448.012, 133.250 448.007 C 133.662 448.003, 134 447.537, 134 446.971 C 134 446.404, 135.800 443.664, 138 440.881 C 140.200 438.098, 142 435.411, 142 434.910 C 142 433.198, 144.389 433.998, 147.136 436.630 C 150.069 439.440, 152.225 439.317, 153.869 436.245 C 154.730 434.637, 153.753 433.550, 146.859 428.438 C 142.454 425.172, 138.311 422.009, 137.654 421.408 C 136.997 420.807, 135.521 419.814, 134.375 419.201 C 132.599 418.250, 132.100 418.445, 130.987 420.524 M 368.284 423.051 C 366.203 424.020, 363.299 425.867, 361.831 427.156 C 360.363 428.445, 358.045 430.317, 356.681 431.315 L 354.200 433.130 359.071 440.315 C 361.750 444.267, 364.391 448.028, 364.940 448.674 C 365.488 449.320, 366.739 451.128, 367.719 452.692 C 368.698 454.256, 370.575 456.960, 371.888 458.700 C 374.165 461.717, 374.387 461.793, 376.638 460.318 C 377.937 459.466, 379 458.376, 379 457.894 C 379 457.412, 377.425 454.954, 375.500 452.432 C 371.338 446.980, 371.246 446.301, 374.464 444.835 C 377.560 443.424, 381.760 437.449, 382.597 433.266 C 383.118 430.662, 382.668 429.369, 380.127 426.160 C 376.419 421.479, 373.378 420.681, 368.284 423.051 M 367.973 429.715 C 361.868 433.949, 361.802 434.168, 365.332 438.373 L 368.548 442.204 372.774 438.103 C 377.456 433.560, 377.871 432.098, 375.171 429.655 C 372.846 427.551, 371.071 427.565, 367.973 429.715 M 152.872 453.034 C 140.191 465.395, 139.600 466.144, 141.441 467.534 C 144.464 469.817, 146.539 469.293, 149.416 465.522 L 152.069 462.044 156.284 463.719 C 162.429 466.162, 163.019 467.041, 162.344 472.746 C 161.800 477.340, 161.929 477.748, 164.111 478.319 C 165.406 478.657, 166.793 478.607, 167.194 478.206 C 167.594 477.806, 168.591 470.493, 169.409 461.955 C 170.227 453.418, 171.168 445.727, 171.499 444.864 C 171.884 443.860, 171.197 442.704, 169.585 441.648 C 168.202 440.742, 166.884 440, 166.657 440 C 166.429 440, 160.226 445.865, 152.872 453.034 M 335.750 443.080 C 334.234 443.963, 334.001 445.731, 334.007 456.300 C 334.011 463.010, 334.301 471.538, 334.652 475.250 C 335.318 482.307, 336.138 483.180, 339.896 480.833 C 341.426 479.877, 341.605 479.109, 340.882 476.590 C 339.303 471.084, 339.726 470.275, 345.653 467.471 C 350.692 465.087, 351.404 464.971, 352.206 466.404 C 352.701 467.288, 354.097 469.164, 355.310 470.574 C 357.229 472.805, 357.867 473.001, 360.257 472.093 C 361.765 471.519, 363 470.693, 363 470.256 C 363 469.383, 356.716 461.486, 351.656 456 C 349.881 454.075, 346.490 450.137, 344.121 447.250 C 339.671 441.826, 338.718 441.351, 335.750 443.080 M 183.509 448.267 C 182.881 450.128, 180.023 459.972, 178.796 464.500 C 178.200 466.700, 177.162 470.300, 176.491 472.500 C 173.742 481.505, 173.747 481.898, 176.618 482.619 C 178.615 483.120, 179.532 482.819, 180.362 481.391 C 181.615 479.236, 183.872 471.064, 184.463 466.542 C 184.682 464.869, 185.297 462.375, 185.830 461 C 187.006 457.969, 187.256 458.539, 189.569 469.500 C 190.498 473.900, 191.591 477.950, 191.998 478.500 C 192.406 479.050, 193.042 481.182, 193.413 483.238 C 194.104 487.078, 196.723 489.397, 199.708 488.813 C 200.590 488.641, 201.442 487.825, 201.603 487 C 202.738 481.167, 203.254 478.917, 204.469 474.500 C 205.226 471.750, 206.368 467.025, 207.008 464 C 207.648 460.975, 208.388 457.712, 208.653 456.750 C 209.036 455.359, 208.506 455, 206.067 455 C 203.708 455, 202.971 455.462, 202.875 457 C 202.806 458.100, 202.659 459.337, 202.547 459.750 C 202.436 460.163, 201.991 462.192, 201.559 464.261 C 201.127 466.330, 200.413 468.244, 199.974 468.516 C 199.534 468.788, 198.847 470.921, 198.448 473.255 C 197.622 478.089, 197.267 477.576, 194.480 467.500 C 193.567 464.200, 192.185 459.685, 191.410 457.467 C 190.634 455.248, 190 452.854, 190 452.145 C 190 449.417, 184.274 445.996, 183.509 448.267 M 160.116 453.854 L 157.063 457.708 159.579 458.854 C 162.898 460.366, 162.683 460.501, 163.447 456.429 C 163.816 454.465, 164.364 452.215, 164.666 451.429 C 165.728 448.661, 163.133 450.044, 160.116 453.854 M 309.500 451.493 C 308.950 451.677, 305.800 452.617, 302.500 453.582 C 299.200 454.548, 296.406 455.393, 296.292 455.460 C 296.177 455.528, 296.750 458.264, 297.564 461.542 C 298.379 464.819, 299.292 469.293, 299.595 471.485 C 299.897 473.676, 300.505 475.926, 300.946 476.485 C 301.387 477.043, 302.043 479.525, 302.403 482 C 303.324 488.324, 304.159 489.344, 307.772 488.550 L 310.793 487.887 309.534 482.693 C 308.842 479.837, 308.101 476.846, 307.888 476.048 C 307.620 475.046, 309.177 474.043, 312.898 472.818 C 319.460 470.659, 321.339 469.062, 322.758 464.437 C 323.972 460.482, 322.240 454.670, 319.147 452.316 C 317.642 451.171, 311.920 450.683, 309.500 451.493 M 339.070 455.750 C 339.192 462.242, 340.500 463.603, 344.435 461.331 C 346.258 460.278, 346.274 460.077, 344.719 457.857 C 339.806 450.843, 338.972 450.532, 339.070 455.750 M 308.157 456.995 C 303.536 458.088, 302.723 459.141, 303.970 462.421 C 304.544 463.932, 304.728 465.630, 304.379 466.196 C 302.525 469.196, 311.303 468.037, 315.750 464.695 C 317.577 463.322, 317.276 458.930, 315.250 457.392 C 313.290 455.904, 312.872 455.880, 308.157 456.995 M 221.537 466.904 C 219.156 471.632, 215.586 478.601, 213.604 482.392 C 211.622 486.183, 210 489.843, 210 490.526 C 210 492.064, 215.105 493.149, 216.585 491.926 C 217.182 491.432, 218.250 489.272, 218.958 487.126 C 220.226 483.286, 220.312 483.232, 224.373 483.747 C 230.241 484.493, 231.998 485.651, 232.014 488.785 C 232.041 494.227, 233.049 496, 236.117 496 C 239.391 496, 239.575 495.016, 237.894 486.500 C 236.630 480.095, 236.185 477.218, 235.882 473.500 C 235.747 471.850, 235.358 470.050, 235.017 469.500 C 234.675 468.950, 234.262 466.925, 234.098 465 C 233.649 459.729, 232.424 458.122, 228.933 458.221 C 226.108 458.301, 225.523 458.988, 221.537 466.904 M 269.750 459.208 C 267.142 460.117, 267 460.493, 267 466.467 C 267 473.605, 266.567 473.961, 257.857 473.986 C 252.449 474.002, 252 473.345, 252 465.418 C 252 460.292, 251.864 460, 249.477 460 L 246.954 460 247.227 477.750 L 247.500 495.500 250.500 495.500 L 253.500 495.500 253.234 487.250 L 252.967 479 260.984 479 L 269 479 269 486.500 L 269 494 271.923 494 L 274.845 494 274.299 476.750 C 273.998 467.262, 273.470 459.219, 273.126 458.875 C 272.782 458.531, 271.262 458.681, 269.750 459.208 M 226.319 471.700 C 223.943 476.839, 224.085 478, 227.090 478 C 229.666 478, 230.165 476.436, 229.250 471.242 L 228.500 466.985 226.319 471.700" stroke="none" fill="black" fill-rule="evenodd"/>
</svg>